HIERARCHY
ROOT joint_Root
{
  OFFSET 0 0 0
  CHANNELS 6 Xposition Yposition Zposition Zrotation Xrotation Yrotation
  JOINT Hips
  {
    OFFSET 0 93.9241 -3
    CHANNELS 6 Xposition Yposition Zposition Zrotation Xrotation Yrotation
    JOINT Spine
    {
      OFFSET 15.7357 0 0
      CHANNELS 6 Xposition Yposition Zposition Zrotation Xrotation Yrotation
      JOINT Chest
      {
        OFFSET 8.98455 -0.406207 0
        CHANNELS 6 Xposition Yposition Zposition Zrotation Xrotation Yrotation
        JOINT Neck
        {
          OFFSET 16.3773 0 0
          CHANNELS 6 Xposition Yposition Zposition Zrotation Xrotation Yrotation
          JOINT Head
          {
            OFFSET 6.45672 0 0
            CHANNELS 6 Xposition Yposition Zposition Zrotation Xrotation Yrotation
            End Site
            {
              OFFSET 0 0 0
            }
          }
        }
        JOINT Shoulder_L
        {
          OFFSET 12.9942 -0.242716 4.98039
          CHANNELS 6 Xposition Yposition Zposition Zrotation Xrotation Yrotation
          JOINT UpperArm_L
          {
            OFFSET 5.34809 0 0
            CHANNELS 6 Xposition Yposition Zposition Zrotation Xrotation Yrotation
            JOINT LowerArm_L
            {
              OFFSET 24.3286 1.87007e-05 0
              CHANNELS 6 Xposition Yposition Zposition Zrotation Xrotation Yrotation
              JOINT Hand_L
              {
                OFFSET 22.2916 0 0
                CHANNELS 6 Xposition Yposition Zposition Zrotation Xrotation Yrotation
                End Site
                {
                  OFFSET 0 0 0
                }
              }
            }
          }
        }
        JOINT Shoulder_R
        {
          OFFSET 12.9945 -0.242716 -4.98039
          CHANNELS 6 Xposition Yposition Zposition Zrotation Xrotation Yrotation
          JOINT UpperArm_R
          {
            OFFSET -5.34813 0 0
            CHANNELS 6 Xposition Yposition Zposition Zrotation Xrotation Yrotation
            JOINT LowerArm_R
            {
              OFFSET -24.3289 0.000322201 0
              CHANNELS 6 Xposition Yposition Zposition Zrotation Xrotation Yrotation
              JOINT Hand_R
              {
                OFFSET -22.2915 -0.000108084 0
                CHANNELS 6 Xposition Yposition Zposition Zrotation Xrotation Yrotation
                End Site
                {
                  OFFSET 0 0 0
                }
              }
            }
          }
        }
      }
    }
    JOINT UpperLeg_L
    {
      OFFSET -2.19248 -6.46944 0
      CHANNELS 6 Xposition Yposition Zposition Zrotation Xrotation Yrotation
      JOINT LowerLeg_L
      {
        OFFSET 39.0811 0 -1.23785e-05
        CHANNELS 6 Xposition Yposition Zposition Zrotation Xrotation Yrotation
        JOINT Foot_L
        {
          OFFSET 40.9854 0 -1.26872e-05
          CHANNELS 6 Xposition Yposition Zposition Zrotation Xrotation Yrotation
          JOINT Toes_L
          {
            OFFSET 11.7543 0 0
            CHANNELS 6 Xposition Yposition Zposition Zrotation Xrotation Yrotation
            End Site
            {
              OFFSET 0 0 0
            }
          }
        }
      }
    }
    JOINT UpperLeg_R
    {
      OFFSET -2.19251 6.46944 0
      CHANNELS 6 Xposition Yposition Zposition Zrotation Xrotation Yrotation
      JOINT LowerLeg_R
      {
        OFFSET -39.0811 -0.00228153 -0.0401928
        CHANNELS 6 Xposition Yposition Zposition Zrotation Xrotation Yrotation
        JOINT Foot_R
        {
          OFFSET -40.9854 0 0
          CHANNELS 6 Xposition Yposition Zposition Zrotation Xrotation Yrotation
          JOINT Toes_R
          {
            OFFSET -11.7543 0 0
            CHANNELS 6 Xposition Yposition Zposition Zrotation Xrotation Yrotation
            End Site
            {
              OFFSET 0 0 0
            }
          }
        }
      }
    }
  }
}
MOTION
Frames:	7
Frame Time:	0.0333333
0 0 0 0 0 -0 242.081 91.8489 -3.36485 85.0194 -74.0044 -6.50946 15.7357 5.1072e-06 -5.51765e-07 155.991 84.7937 -155.891 8.98455 -0.406207 -4.3199e-07 -3.56152 9.49674 0.496916 16.3773 -1.3905e-06 -6.99897e-07 -6.51662 16.7964 1.37075 6.45672 -1.25837e-06 -1.02172e-07 1.0742 20.1548 1.38544 12.9942 -0.242716 4.98039 -91.2782 3.96222 -87.1052 5.34809 -7.22636e-06 -6.2814e-07 -60.1357 -20.1969 19.2189 24.3286 1.87007e-05 4.90208e-06 1.29169 5.69945 -12.7904 22.2916 -9.88446e-07 4.63217e-06 10.1722 5.19864 2.75324 12.9945 -0.242716 -4.98039 89.8127 1.93417 -99.4681 -5.34813 -1.25947e-06 -3.79883e-06 -66.6997 -16.2543 3.36306 -24.3289 0.000322201 -8.65921e-06 0.0601685 0.22474 -15.286 -22.2915 -0.000108084 -4.47941e-06 21.7182 5.41304 -3.36588 -2.19248 -6.46944 -1.22533e-07 -177.652 8.48798 -29.4805 39.0811 -6.73843e-06 -1.23785e-05 -0.351303 0.155582 64.9484 40.9854 -6.48686e-06 -1.26872e-05 3.58863 -13.6401 -46.2711 11.7543 -2.30144e-07 3.05095e-06 0.382973 -0.458493 -20.9311 -2.19251 6.46944 -1.45247e-06 -171.4 11.4203 169.562 -39.0811 -0.00228153 -0.0401928 0.0535658 -0.0879933 20.7871 -40.9854 7.72618e-06 5.99936e-06 4.75394 -12.4275 -63.9472 -11.7543 -5.6619e-06 -5.58687e-06 0.0983257 -0.10313 -17.3671 
0 0 0 0 0 -0 240.03 92.1184 -3.1479 88.8608 -75.0304 -3.56251 15.7357 5.1072e-06 -5.51764e-07 157.815 84.5146 -158.063 8.98455 -0.406207 -4.3199e-07 -3.62941 10.1776 -0.173852 16.3773 -1.3905e-06 -6.99897e-07 -6.8059 17.5034 1.13497 6.45672 -1.25837e-06 -1.02172e-07 1.37243 20.543 0.377173 12.9942 -0.242716 4.98039 -91.2589 3.81042 -86.7024 5.34809 -7.22636e-06 -6.2814e-07 -58.7227 -21.3631 21.8508 24.3286 1.87007e-05 4.90208e-06 0.965686 4.90509 -11.1492 22.2916 -9.88446e-07 4.63217e-06 10.1884 5.19862 2.75309 12.9945 -0.242716 -4.98039 89.8739 1.42812 -99.9536 -5.34813 -1.25947e-06 -3.79883e-06 -66.8326 -17.8071 0.774133 -24.3289 0.000322201 -8.65921e-06 -0.183492 -0.549816 -18.3028 -22.2915 -0.000108084 -4.47941e-06 21.9103 5.4175 -3.51645 -2.19248 -6.46944 -1.22533e-07 -179.067 8.68484 -31.7511 39.0811 -6.73843e-06 -1.23785e-05 -0.290751 0.175582 57.5799 40.9854 -6.48686e-06 -1.26872e-05 3.65569 -13.9446 -48.5215 11.7543 -2.30145e-07 3.05095e-06 0.394978 -0.47404 -21.0741 -2.19251 6.46944 -1.45247e-06 -172.474 11.8909 171.505 -39.0811 -0.00228153 -0.0401928 0.0332113 -0.048712 18.4918 -40.9854 7.72618e-06 5.99936e-06 4.82872 -11.1159 -64.3403 -11.7543 -5.6619e-06 -5.58687e-06 0.062991 -0.0657332 -17.0806 
0 0 0 0 0 -0 237.99 92.2879 -2.96635 91.6767 -76.1096 -1.54372 15.7357 5.1072e-06 -5.51764e-07 158.996 84.2134 -159.494 8.98455 -0.406207 -4.3199e-07 -3.60184 10.8473 -0.655674 16.3773 -1.3905e-06 -6.99897e-07 -7.08939 18.2148 0.798963 6.45672 -1.25837e-06 -1.02172e-07 1.2336 20.8903 -0.562192 12.9942 -0.242716 4.98039 -91.2178 3.6283 -86.432 5.34809 -7.22636e-06 -6.2814e-07 -57.4036 -22.7372 24.1358 24.3286 1.87007e-05 4.90208e-06 0.723814 4.24476 -9.68435 22.2916 -9.88446e-07 4.63217e-06 10.9429 5.19147 2.93227 12.9945 -0.242716 -4.98039 89.9214 1.00378 -100.523 -5.34813 -1.25947e-06 -3.79883e-06 -67.1559 -18.4845 -1.67173 -24.3289 0.000322201 -8.65921e-06 -0.268891 -0.681486 -21.4647 -22.2915 -0.000108084 -4.47941e-06 22.2472 5.42476 -3.75986 -2.19248 -6.46944 -1.22533e-07 179.953 7.94094 -32.239 39.0811 -6.73843e-06 -1.23785e-05 -0.193524 0.174015 46.3622 40.9854 -6.48686e-06 -1.26872e-05 3.21241 -13.1911 -48.7901 11.7543 -2.30145e-07 3.05095e-06 0.392125 -0.470364 -21.0404 -2.19251 6.46944 -1.45247e-06 -173.171 11.7137 173.606 -39.0811 -0.00228153 -0.0401928 0.0160928 -0.0093192 15.9181 -40.9854 7.72618e-06 5.99936e-06 4.87479 -10.3017 -64.5197 -11.7543 -5.6619e-06 -5.58687e-06 0.0405934 -0.0422402 -16.9 
0 0 0 0 0 -0 235.842 92.2709 -2.838 92.3917 -77.18 -1.42037 15.7357 5.1072e-06 -5.51765e-07 160.137 83.9633 -160.668 8.98455 -0.406207 -4.3199e-07 -3.64591 11.4013 -0.700982 16.3773 -1.3905e-06 -6.99897e-07 -7.16019 18.9429 0.358847 6.45672 -1.25837e-06 -1.02172e-07 0.973661 21.1957 -1.33434 12.9942 -0.242716 4.98039 -91.1405 3.33835 -86.1262 5.34809 -7.22636e-06 -6.2814e-07 -56.4684 -23.9898 26.1082 24.3286 1.87007e-05 4.90208e-06 0.56502 3.83556 -8.38462 22.2916 -9.88446e-07 4.63217e-06 12.0289 5.18834 3.0092 12.9945 -0.242716 -4.98039 89.9636 0.558363 -101.277 -5.34813 -1.25947e-06 -3.79883e-06 -67.3736 -18.3863 -3.70091 -24.3289 0.000322201 -8.65921e-06 -0.136669 -0.29879 -24.41 -22.2915 -0.000108084 -4.47941e-06 22.5807 5.43331 -4.05144 -2.19248 -6.46944 -1.22534e-07 179.285 6.35866 -30.4524 39.0811 -6.73843e-06 -1.23785e-05 -0.0974881 0.145171 31.3257 40.9854 -6.48686e-06 -1.26872e-05 2.68513 -10.4605 -47.957 11.7543 -2.30145e-07 3.05095e-06 0.381235 -0.456254 -20.9103 -2.19251 6.46944 -1.45247e-06 -173.369 12.0462 175.853 -39.0811 -0.00228153 -0.0401928 0.00365402 0.0288715 13.5206 -40.9854 7.72618e-06 5.99936e-06 4.93283 -8.99506 -64.9298 -11.7543 -5.6619e-06 -5.58687e-06 0.0432179 -0.0449844 -16.9212 
0 0 0 0 0 -0 233.441 92.0283 -2.73603 90.0103 -78.3654 -4.09296 15.7357 5.1072e-06 -5.51765e-07 161.957 83.7046 -162.269 8.98455 -0.406207 -4.3199e-07 -3.87598 11.9958 -0.218942 16.3773 -1.3905e-06 -6.99897e-07 -6.92377 19.564 0.0377804 6.45672 -1.25837e-06 -1.02172e-07 0.99266 21.5473 -2.11722 12.9942 -0.242716 4.98039 -90.9671 2.79407 -85.899 5.34809 -7.22636e-06 -6.2814e-07 -56.0356 -25.0915 27.9701 24.3286 1.87007e-05 4.90208e-06 0.474189 3.57034 -7.57009 22.2916 -9.88446e-07 4.63217e-06 13.1228 5.18327 3.13544 12.9945 -0.242716 -4.98039 89.9959 0.0772897 -101.959 -5.34813 -1.25947e-06 -3.79883e-06 -67.6022 -17.7628 -5.36812 -24.3289 0.000322201 -8.65921e-06 -0.0167127 -0.0313995 -26.7011 -22.2915 -0.000108084 -4.47941e-06 23.467 5.43271 -4.03177 -2.19248 -6.46944 -1.22534e-07 178.773 3.75819 -26.5008 39.0811 -6.73843e-06 -1.23785e-05 -0.0291547 0.0933163 13.6912 40.9854 -6.48686e-06 -1.26872e-05 1.87891 -3.68335 -46.7229 11.7543 -2.30145e-07 3.05095e-06 0.382442 -0.457816 -20.9248 -2.19251 6.46944 -1.45247e-06 -172.992 12.1895 178.446 -39.0811 -0.00228153 -0.0401928 -0.000214045 0.0432039 11.3228 -40.9854 7.72618e-06 5.99936e-06 4.96828 -7.63555 -65.6275 -11.7543 -5.6619e-06 -5.58687e-06 0.0554113 -0.0577888 -17.0195 
0 0 0 0 0 -0 230.652 91.3821 -2.58556 84.9594 -79.5914 -9.12808 15.7357 5.1072e-06 -5.51765e-07 163.979 83.4307 -163.954 8.98455 -0.406207 -4.3199e-07 -4.19501 12.6164 0.514379 16.3773 -1.3905e-06 -6.99897e-07 -6.63635 19.9814 -0.0327709 6.45672 -1.25837e-06 -1.02172e-07 1.29003 21.92 -2.6441 12.9942 -0.242716 4.98039 -90.7109 2.04562 -85.8324 5.34809 -7.22636e-06 -6.2814e-07 -55.9423 -25.986 29.7959 24.3286 1.87007e-05 4.90208e-06 0.473014 3.63696 -7.41476 22.2916 -9.88446e-07 4.63217e-06 13.6459 5.19177 2.92571 12.9945 -0.242716 -4.98039 90.0236 -0.509621 -102.349 -5.34813 -1.25947e-06 -3.79883e-06 -68.242 -17.144 -7.0612 -24.3289 0.000322201 -8.65921e-06 0.251306 0.480027 -27.7308 -22.2915 -0.000108084 -4.47941e-06 23.684 5.43854 -4.23528 -2.19248 -6.46944 -1.22534e-07 178.762 1.6267 -25.8067 39.0811 -6.73843e-06 -1.23785e-05 -0.00302492 0.0330367 4.69118 40.9854 -6.48686e-06 -1.26872e-05 -2.11865 2.43867 -49.3823 11.7543 -2.30145e-07 3.05095e-06 0.366752 -0.437587 -20.7382 -2.19251 6.46944 -1.45247e-06 -172.386 11.9043 179.946 -39.0811 -0.00228153 -0.0401928 0.00561964 0.0174755 12.5067 -40.9854 7.72618e-06 5.99936e-06 4.71891 -6.57976 -68.0339 -11.7543 -5.6619e-06 -5.58687e-06 0.108931 -0.114442 -17.4535 
0 0 0 0 0 -0 227.719 90.7775 -2.18225 83.3074 -80.2174 -10.9926 15.7357 5.1072e-06 -5.51764e-07 165.253 83.392 -165.086 8.98455 -0.406207 -4.3199e-07 -4.4787 12.7524 0.835724 16.3773 -1.3905e-06 -6.99897e-07 -6.44549 20.2588 -0.160024 6.45672 -1.25837e-06 -1.02172e-07 1.54764 22.2553 -2.97355 12.9942 -0.242716 4.98039 -90.7411 2.11985 -85.7253 5.34809 -7.22636e-06 -6.2814e-07 -55.5226 -26.2825 31.1514 24.3286 1.87007e-05 4.90208e-06 0.451621 3.45566 -7.44975 22.2916 -9.88446e-07 4.63217e-06 13.9868 5.21495 2.34204 12.9945 -0.242716 -4.98039 90.0236 -0.517856 -102.389 -5.34813 -1.25947e-06 -3.79883e-06 -68.4856 -16.7127 -8.77134 -24.3289 0.000322201 -8.65921e-06 0.817697 1.55785 -27.7338 -22.2915 -0.000108084 -4.47941e-06 23.1423 5.44461 -4.44798 -2.19248 -6.46944 -1.22533e-07 178.479 1.57408 -26.224 39.0811 -6.73843e-06 -1.23785e-05 -0.000432361 0.0533811 0.0980396 40.9854 -6.48686e-06 -1.26872e-05 -5.20978 4.61505 -51.8637 11.7543 -2.30145e-07 3.05095e-06 0.356202 -0.424031 -20.613 -2.19251 6.46944 -1.45247e-06 -172.703 12.5687 -179.686 -39.0811 -0.00228153 -0.0401928 0.0230817 -0.0371011 15.527 -40.9854 7.72618e-06 5.99936e-06 4.27038 -5.20005 -70.0999 -11.7543 -5.6619e-06 -5.58687e-06 0.159061 -0.192554 -18.317 
